<?xml version="1.0" encoding="UTF-8" standalone="no"?>
<!-- Generator: Adobe Illustrator 21.1.0, SVG Export Plug-In . SVG Version: 6.00 Build 0)  -->

<svg
   xmlns:dc="http://purl.org/dc/elements/1.1/"
   xmlns:cc="http://creativecommons.org/ns#"
   xmlns:rdf="http://www.w3.org/1999/02/22-rdf-syntax-ns#"
   xmlns:svg="http://www.w3.org/2000/svg"
   xmlns="http://www.w3.org/2000/svg"
   xmlns:sodipodi="http://sodipodi.sourceforge.net/DTD/sodipodi-0.dtd"
   xmlns:inkscape="http://www.inkscape.org/namespaces/inkscape"
   version="1.1"
   id="Layer_1"
   x="0px"
   y="0px"
   viewBox="0 0 50 50"
   style="enable-background:new 0 0 50 50;"
   xml:space="preserve"
   width="500px"
   height="500px"
   inkscape:version="0.91 r13725"
   sodipodi:docname="icons8-sweet-home-4white.svg"><metadata
     id="metadata11"><rdf:RDF><cc:Work
         rdf:about=""><dc:format>image/svg+xml</dc:format><dc:type
           rdf:resource="http://purl.org/dc/dcmitype/StillImage" /><dc:title></dc:title></cc:Work></rdf:RDF></metadata><defs
     id="defs9" /><sodipodi:namedview
     pagecolor="#ffffff"
     bordercolor="#666666"
     borderopacity="1"
     objecttolerance="10"
     gridtolerance="10"
     guidetolerance="10"
     inkscape:pageopacity="0"
     inkscape:pageshadow="2"
     inkscape:window-width="1920"
     inkscape:window-height="1027"
     id="namedview7"
     showgrid="false"
     inkscape:zoom="1.686"
     inkscape:cx="250"
     inkscape:cy="250"
     inkscape:window-x="0"
     inkscape:window-y="0"
     inkscape:window-maximized="1"
     inkscape:current-layer="Layer_1" /><polygon
     points="41,5 41,10.73 35,6.05 35,5 "
     id="polygon3"
     style="fill:#ffffff" /><path
     d="M48.79,20.62C48.59,20.87,48.3,21,48,21c-0.22,0-0.43-0.07-0.62-0.21L46,19.71V46c0,0.55-0.45,1-1,1H31V29H19v18H5  c-0.55,0-1-0.45-1-1V19.71l-1.38,1.08c-0.44,0.34-1.07,0.26-1.41-0.17c-0.34-0.44-0.26-1.07,0.17-1.41l23-17.95  c0.37-0.28,0.87-0.28,1.24,0l23,17.95C49.05,19.55,49.13,20.18,48.79,20.62z"
     id="path5"
     style="fill:#ffffff" /></svg>