<?xml version="1.0" encoding="UTF-8" standalone="no"?>
<!-- Generator: Adobe Illustrator 19.2.0, SVG Export Plug-In . SVG Version: 6.00 Build 0)  -->

<svg
   xmlns:dc="http://purl.org/dc/elements/1.1/"
   xmlns:cc="http://creativecommons.org/ns#"
   xmlns:rdf="http://www.w3.org/1999/02/22-rdf-syntax-ns#"
   xmlns:svg="http://www.w3.org/2000/svg"
   xmlns="http://www.w3.org/2000/svg"
   xmlns:sodipodi="http://sodipodi.sourceforge.net/DTD/sodipodi-0.dtd"
   xmlns:inkscape="http://www.inkscape.org/namespaces/inkscape"
   version="1.1"
   x="0px"
   y="0px"
   viewBox="0 0 50 50"
   style="enable-background:new 0 0 50 50;"
   xml:space="preserve"
   width="500px"
   height="500px"
   id="svg2"
   inkscape:version="0.91 r13725"
   sodipodi:docname="icons8-youtube-6white.svg"><metadata
     id="metadata12"><rdf:RDF><cc:Work
         rdf:about=""><dc:format>image/svg+xml</dc:format><dc:type
           rdf:resource="http://purl.org/dc/dcmitype/StillImage" /><dc:title></dc:title></cc:Work></rdf:RDF></metadata><defs
     id="defs10" /><sodipodi:namedview
     pagecolor="#ffffff"
     bordercolor="#666666"
     borderopacity="1"
     objecttolerance="10"
     gridtolerance="10"
     guidetolerance="10"
     inkscape:pageopacity="0"
     inkscape:pageshadow="2"
     inkscape:window-width="1920"
     inkscape:window-height="1027"
     id="namedview8"
     showgrid="false"
     inkscape:zoom="0.472"
     inkscape:cx="254.23729"
     inkscape:cy="250"
     inkscape:window-x="0"
     inkscape:window-y="0"
     inkscape:window-maximized="1"
     inkscape:current-layer="svg2" /><g
     id="g4"
     style="fill:#ffffff"><path
       d="M44.9,14.5c-0.4-2.2-2.3-3.8-4.5-4.3C37.1,9.5,31,9,24.4,9c-6.6,0-12.8,0.5-16.1,1.2c-2.2,0.5-4.1,2-4.5,4.3   C3.4,17,3,20.5,3,25s0.4,8,0.9,10.5c0.4,2.2,2.3,3.8,4.5,4.3c3.5,0.7,9.5,1.2,16.1,1.2s12.6-0.5,16.1-1.2c2.2-0.5,4.1-2,4.5-4.3   c0.4-2.5,0.9-6.1,1-10.5C45.9,20.5,45.4,17,44.9,14.5z M19,32V18l12.2,7L19,32z"
       id="path6"
       style="fill:#ffffff" /></g></svg>