<?xml version="1.0" encoding="UTF-8" standalone="no"?>
<!-- Generator: Adobe Illustrator 15.0.0, SVG Export Plug-In . SVG Version: 6.00 Build 0)  -->

<svg
   xmlns:dc="http://purl.org/dc/elements/1.1/"
   xmlns:cc="http://creativecommons.org/ns#"
   xmlns:rdf="http://www.w3.org/1999/02/22-rdf-syntax-ns#"
   xmlns:svg="http://www.w3.org/2000/svg"
   xmlns="http://www.w3.org/2000/svg"
   xmlns:sodipodi="http://sodipodi.sourceforge.net/DTD/sodipodi-0.dtd"
   xmlns:inkscape="http://www.inkscape.org/namespaces/inkscape"
   version="1.1"
   id="Layer_1"
   x="0px"
   y="0px"
   width="500px"
   height="500px"
   viewBox="0 0 26 26"
   enable-background="new 0 0 26 26"
   xml:space="preserve"
   inkscape:version="0.91 r13725"
   sodipodi:docname="icons8-black-twitter-logo (copy).svg"
   inkscape:export-filename="/home/gokul/Downloads/Website/Assets/Icons/Default (1)/icons8-black-twitter-logo (copy).svg"
   inkscape:export-xdpi="90"
   inkscape:export-ydpi="90"><metadata
     id="metadata9"><rdf:RDF><cc:Work
         rdf:about=""><dc:format>image/svg+xml</dc:format><dc:type
           rdf:resource="http://purl.org/dc/dcmitype/StillImage" /></cc:Work></rdf:RDF></metadata><defs
     id="defs7" /><sodipodi:namedview
     pagecolor="#ffffff"
     bordercolor="#666666"
     borderopacity="1"
     objecttolerance="10"
     gridtolerance="10"
     guidetolerance="10"
     inkscape:pageopacity="0"
     inkscape:pageshadow="2"
     inkscape:window-width="1920"
     inkscape:window-height="1027"
     id="namedview5"
     showgrid="false"
     inkscape:zoom="0.472"
     inkscape:cx="254.23729"
     inkscape:cy="250"
     inkscape:window-x="0"
     inkscape:window-y="0"
     inkscape:window-maximized="1"
     inkscape:current-layer="Layer_1" /><path
     fill="#000000"
     d="M25.855,5.574c-0.942,0.418-1.953,0.699-3.017,0.827c1.085-0.65,1.918-1.68,2.31-2.904  c-1.015,0.601-2.14,1.038-3.335,1.273c-0.957-1.021-2.321-1.658-3.831-1.658c-2.9,0-5.251,2.351-5.251,5.25  c0,0.411,0.047,0.812,0.137,1.196c-4.363-0.22-8.232-2.31-10.822-5.486c-0.452,0.777-0.71,1.679-0.71,2.641  c0,1.821,0.925,3.428,2.335,4.37c-0.861-0.027-1.67-0.264-2.378-0.657c0,0.022,0,0.044,0,0.066c0,2.545,1.81,4.664,4.21,5.148  c-0.439,0.121-0.903,0.185-1.382,0.185c-0.339,0-0.668-0.033-0.989-0.095c0.67,2.084,2.608,3.604,4.905,3.646  c-1.796,1.408-4.06,2.246-6.521,2.246c-0.425,0-0.842-0.023-1.252-0.073c2.322,1.49,5.083,2.359,8.048,2.359  c9.657,0,14.939-8.001,14.939-14.937c0-0.229-0.006-0.456-0.016-0.68C24.263,7.553,25.152,6.627,25.855,5.574"
     id="path3"
     style="fill:#ffffff" /></svg>