<?xml version="1.0" encoding="UTF-8" standalone="no"?>
<!-- Generator: Adobe Illustrator 19.0.0, SVG Export Plug-In . SVG Version: 6.00 Build 0)  -->

<svg
   xmlns:dc="http://purl.org/dc/elements/1.1/"
   xmlns:cc="http://creativecommons.org/ns#"
   xmlns:rdf="http://www.w3.org/1999/02/22-rdf-syntax-ns#"
   xmlns:svg="http://www.w3.org/2000/svg"
   xmlns="http://www.w3.org/2000/svg"
   xmlns:sodipodi="http://sodipodi.sourceforge.net/DTD/sodipodi-0.dtd"
   xmlns:inkscape="http://www.inkscape.org/namespaces/inkscape"
   version="1.1"
   id="Capa_1"
   x="0px"
   y="0px"
   viewBox="0 0 512.001 512.001"
   style="enable-background:new 0 0 512.001 512.001;"
   xml:space="preserve"
   inkscape:version="0.91 r13725"
   sodipodi:docname="team.svg"><metadata
     id="metadata91"><rdf:RDF><cc:Work
         rdf:about=""><dc:format>image/svg+xml</dc:format><dc:type
           rdf:resource="http://purl.org/dc/dcmitype/StillImage" /><dc:title></dc:title></cc:Work></rdf:RDF></metadata><defs
     id="defs89" /><sodipodi:namedview
     pagecolor="#ffffff"
     bordercolor="#666666"
     borderopacity="1"
     objecttolerance="10"
     gridtolerance="10"
     guidetolerance="10"
     inkscape:pageopacity="0"
     inkscape:pageshadow="2"
     inkscape:window-width="1920"
     inkscape:window-height="1027"
     id="namedview87"
     showgrid="false"
     inkscape:zoom="1.6464812"
     inkscape:cx="256.00049"
     inkscape:cy="256.00049"
     inkscape:window-x="0"
     inkscape:window-y="0"
     inkscape:window-maximized="1"
     inkscape:current-layer="Capa_1" /><g
     id="g3"
     style="fill:#00ff00"><g
       id="g5"
       style="fill:#00ff00"><path
         d="M135.105,191.054L17.072,73.021c-3.906-3.903-10.237-3.904-14.143,0c-3.905,3.905-3.905,10.237,0,14.143l115.099,115.097    l-0.02,13.781c-0.008,5.523,4.463,10.007,9.985,10.015c0.005,0,0.01,0,0.015,0c5.516,0,9.992-4.468,10-9.985l0.026-17.932    C138.038,195.483,136.984,192.933,135.105,191.054z"
         id="path7"
         style="fill:#00ff00" /></g></g><g
     id="g9"
     style="fill:#00ff00"><g
       id="g11"
       style="fill:#00ff00"><path
         d="M225.871,117.994c-0.005,0-0.01,0-0.015,0l-23.595,0.033L87.165,2.929c-3.905-3.904-10.237-3.904-14.143,0    c-3.905,3.905-3.905,10.237,0,14.143l118.033,118.032c1.876,1.875,4.419,2.929,7.071,2.929c0.004,0,0.01,0,0.014,0l27.745-0.039    c5.523-0.008,9.994-4.491,9.986-10.014C235.863,122.461,231.388,117.994,225.871,117.994z"
         id="path13"
         style="fill:#00ff00" /></g></g><g
     id="g15"
     style="fill:#00ff00"><g
       id="g17"
       style="fill:#00ff00"><path
         d="M438.981,2.93c-1.86-1.86-4.44-2.93-7.07-2.93s-5.21,1.069-7.07,2.93c-1.86,1.861-2.93,4.44-2.93,7.07    s1.07,5.21,2.93,7.069c1.86,1.861,4.44,2.931,7.07,2.931s5.21-1.07,7.07-2.931c1.86-1.859,2.93-4.439,2.93-7.069    S440.841,4.79,438.981,2.93z"
         id="path19"
         style="fill:#00ff00" /></g></g><g
     id="g21"
     style="fill:#00ff00"><g
       id="g23"
       style="fill:#00ff00"><path
         d="M409.692,32.216c-3.905-3.904-10.237-3.904-14.142,0l-85.811,85.811l-13.782-0.02c-0.049,0-0.095,0-0.143,0    c-26.456,0-51.325,10.3-70.036,29.01l-8.987,8.989c-3.905,3.906-3.905,10.237,0,14.143c1.953,1.952,4.512,2.929,7.071,2.929    c2.559,0,5.119-0.977,7.071-2.929l8.988-8.989c14.934-14.934,34.779-23.152,55.894-23.152c0.038,0,0.077,0,0.114,0l17.932,0.025    c0.005,0,0.009,0,0.014,0c2.652,0,5.196-1.054,7.071-2.929l88.746-88.745C413.597,42.454,413.597,36.122,409.692,32.216z"
         id="path25"
         style="fill:#00ff00" /></g></g><g
     id="g27"
     style="fill:#00ff00"><g
       id="g29"
       style="fill:#00ff00"><path
         d="M509.072,73.02c-3.904-3.904-10.237-3.904-14.142,0L376.897,191.054c-1.878,1.879-2.933,4.428-2.929,7.086l0.04,27.745    c0.008,5.518,4.483,9.985,10,9.985c0.005,0,0.01,0,0.015,0c5.523-0.008,9.994-4.491,9.986-10.015l-0.034-23.595L509.072,87.163    C512.977,83.258,512.977,76.926,509.072,73.02z"
         id="path31"
         style="fill:#00ff00" /></g></g><g
     id="g33"
     style="fill:#00ff00"><g
       id="g35"
       style="fill:#00ff00"><path
         d="M509.072,424.837L393.974,309.739l0.02-13.782c0.019-13.139-2.524-25.953-7.558-38.088    c-2.116-5.102-7.967-7.521-13.068-5.406c-5.102,2.116-7.522,7.967-5.406,13.068c4.017,9.685,6.046,19.912,6.031,30.397    l-0.026,17.932c-0.004,2.657,1.05,5.207,2.929,7.086L494.93,438.98c1.953,1.952,4.512,2.929,7.071,2.929s5.119-0.977,7.071-2.929    C512.977,435.074,512.978,428.742,509.072,424.837z"
         id="path37"
         style="fill:#00ff00" /></g></g><g
     id="g39"
     style="fill:#00ff00"><g
       id="g41"
       style="fill:#00ff00"><path
         d="M438.981,494.929L320.947,376.897c-1.876-1.875-4.419-2.929-7.071-2.929c-0.004,0-0.01,0-0.014,0l-27.745,0.039    c-5.523,0.008-9.994,4.491-9.986,10.014c0.008,5.519,4.483,9.986,10,9.986c0.005,0,0.01,0,0.015,0l23.595-0.033l115.098,115.098    c1.953,1.952,4.512,2.929,7.071,2.929s5.119-0.977,7.071-2.929C442.886,505.167,442.886,498.835,438.981,494.929z"
         id="path43"
         style="fill:#00ff00" /></g></g><g
     id="g45"
     style="fill:#00ff00"><g
       id="g47"
       style="fill:#00ff00"><path
         d="M87.161,494.93c-1.86-1.861-4.44-2.93-7.07-2.93s-5.21,1.069-7.07,2.93c-1.86,1.86-2.93,4.44-2.93,7.07    s1.07,5.21,2.93,7.069c1.86,1.86,4.44,2.931,7.07,2.931c2.63,0,5.21-1.07,7.07-2.931c1.87-1.859,2.93-4.439,2.93-7.069    S89.031,496.79,87.161,494.93z"
         id="path49"
         style="fill:#00ff00" /></g></g><g
     id="g51"
     style="fill:#00ff00"><g
       id="g53"
       style="fill:#00ff00"><path
         d="M357.633,253.729c-2.268-2.268-4.832-4.06-7.565-5.391c2.338-4.16,3.589-8.867,3.589-13.769    c0-7.525-2.93-14.6-8.251-19.922c-2.407-2.406-5.144-4.285-8.067-5.637c5.043-10.486,3.231-23.471-5.451-32.154    c-8.681-8.679-21.66-10.494-32.145-5.456c-1.375-2.959-3.27-5.687-5.646-8.063c-10.986-10.984-28.858-10.982-39.843,0    l-39.925,39.926c-0.762-8.093-4.939-15.795-12.039-20.766c-6.341-4.44-14.024-6.104-21.634-4.682    c-7.61,1.422-14.174,5.745-18.486,12.174l-27.393,40.85c-11.007,16.415-16.811,35.539-16.783,55.305l0.034,23.594L2.93,424.837    c-3.905,3.905-3.905,10.237,0,14.143c1.952,1.952,4.512,2.929,7.071,2.929s5.119-0.977,7.071-2.929l118.033-118.033    c1.878-1.879,2.933-4.429,2.929-7.086l-0.04-27.744c-0.022-15.774,4.609-31.037,13.395-44.138l27.392-40.85    c1.294-1.929,3.264-3.226,5.547-3.652c2.282-0.426,4.589,0.072,6.491,1.404c3.687,2.582,4.747,7.619,2.414,11.468l-10.704,17.656    c-3.376,5.568-2.107,12.527,3.016,16.547c5.123,4.02,12.185,3.594,16.79-1.01l66.061-66.062c3.187-3.188,8.372-3.187,11.559,0    c1.543,1.544,2.394,3.596,2.394,5.779c0,1.853-0.618,3.607-1.747,5.041l-39.094,39.185c-3.905,3.905-3.905,10.237,0,14.143    c3.905,3.904,10.237,3.904,14.143,0l50.538-50.629c3.187-3.187,8.372-3.187,11.558-0.001c3.187,3.188,3.187,8.372,0,11.559    l-50.583,50.584c-3.905,3.905-3.905,10.237,0,14.143c1.953,1.952,4.512,2.929,7.071,2.929s5.119-0.977,7.071-2.929l39.14-39.141    c3.205-2.516,7.868-2.305,10.819,0.647c1.544,1.544,2.394,3.596,2.394,5.779c0,2.183-0.85,4.234-2.394,5.778l-38.447,38.447    c-3.905,3.905-3.905,10.237,0,14.143c1.953,1.952,4.512,2.929,7.071,2.929s5.119-0.977,7.071-2.929l25.71-25.71    c3.205-2.521,7.87-2.309,10.823,0.645c1.544,1.543,2.394,3.596,2.394,5.779s-0.85,4.235-2.394,5.778l-71.41,71.411    c-14.934,14.934-34.779,23.152-55.894,23.152c-0.038,0-0.077,0-0.114,0l-17.932-0.025c-0.005,0-0.009,0-0.014,0    c-2.652,0-5.196,1.054-7.071,2.929l-92.912,92.912c-3.905,3.905-3.905,10.237,0,14.143c1.953,1.952,4.512,2.929,7.071,2.929    c2.559,0,5.119-0.977,7.071-2.929l89.977-89.978l13.782,0.02c0.049,0,0.095,0,0.143,0c26.456,0,51.325-10.3,70.036-29.01    l71.407-71.411C368.617,282.588,368.617,264.714,357.633,253.729z"
         id="path55"
         style="fill:#00ff00" /></g></g><g
     id="g57" /><g
     id="g59" /><g
     id="g61" /><g
     id="g63" /><g
     id="g65" /><g
     id="g67" /><g
     id="g69" /><g
     id="g71" /><g
     id="g73" /><g
     id="g75" /><g
     id="g77" /><g
     id="g79" /><g
     id="g81" /><g
     id="g83" /><g
     id="g85" /></svg>